# xmcd
# Copyright (C) 1995-1998 Ti Kan
#
# Track frame offsets:
#       150
#       13427
#       26312
#       33979
#       47249
#       59765
#       69201
#       82360
#       89727
#       102916
#       117622
#       130778
#       140933
#       156098
#
# Disc length: 2310 seconds
#
# Revision: 0
# Processed by: cddbd v1.5.2PL0 Copyright (c) Steve Scherf et al.
# Submitted via: CD-Import v1.0
#
DISCID=d209040e
DTITLE=Big Boss Man - Full English Beat Breakfast
DYEAR=2009
DGENRE=
TTITLE0=Triumph Of The Olympian
TTITLE1=Beat Breakfast
TTITLE2=Trillby Of Fun
TTITLE3=Black Eye (I Believe In Love)
TTITLE4=Full Brazilian
TTITLE5=C'est Mio
TTITLE6=Clown Face
TTITLE7=Vip 233
TTITLE8=Hairy Mary
TTITLE9=Pies And Pastiche
TTITLE10=Vampyros Twist
TTITLE11=Slap Head's Demise
TTITLE12=The Bloater
TTITLE13=Luna
EXTD=
EXTT0=
EXTT1=
EXTT2=
EXTT3=
EXTT4=
EXTT5=
EXTT6=
EXTT7=
EXTT8=
EXTT9=
EXTT10=
EXTT11=
EXTT12=
EXTT13=
PLAYORDER=
